# xmcd CD database file
#
# Track frame offsets:
#	150
#	31884
#	51332
#	74374
#	97274
#	126824
#	145823
#	165637
#	188380
#	205437
#	229550
#	251955
#	274729
#
# Disc length: 3918 seconds
#
# Revision: 1
# Processed by: cddbd v1.5.2PL0 Copyright (c) Steve Scherf et al.
# Submitted via: CDex 1.70beta2
#
DISCID=bf0f4c0d
DTITLE=Washington Savage - Savage Piano Lounge
DYEAR=2009
DGENRE=Jazz
TTITLE0=Wonderful World
TTITLE1=Rudy
TTITLE2=Blue Moon
TTITLE3=Old Folks
TTITLE4=Take Five
TTITLE5=Ain't No Sunshine
TTITLE6=As Time Goes By
TTITLE7=No Me Quitte Pas (Don't Leave Me)
TTITLE8=One Of Three
TTITLE9=Tenderly
TTITLE10=Tyrant Saint Blues
TTITLE11=Godfather
TTITLE12=Prelude To A Kiss
EXTD=YEAR: 2009
EXTT0=
EXTT1=
EXTT2=
EXTT3=
EXTT4=
EXTT5=
EXTT6=
EXTT7=
EXTT8=
EXTT9=
EXTT10=
EXTT11=
EXTT12=
PLAYORDER=
